<svg width="20" height="20" viewBox="0 0 20 20" fill="none" xmlns="http://www.w3.org/2000/svg">
<path d="M8.125 17.2917L9.35246 17.9737C9.5888 18.105 9.70697 18.1707 9.83212 18.1964C9.94288 18.2192 10.0571 18.2192 10.1679 18.1964C10.293 18.1707 10.4112 18.105 10.6475 17.9737L11.875 17.2917M4.375 15.2084L3.18583 14.5478C2.93622 14.4091 2.81141 14.3398 2.72053 14.2412C2.64014 14.1539 2.57929 14.0505 2.54207 13.9379C2.5 13.8105 2.5 13.6678 2.5 13.3822V12.0834M2.5 7.91675V6.61791C2.5 6.33237 2.5 6.18959 2.54207 6.06226C2.57929 5.94961 2.64014 5.8462 2.72054 5.75896C2.81142 5.66035 2.93623 5.59101 3.18584 5.45235L4.375 4.79175M8.125 2.70842L9.35249 2.0265C9.58882 1.89521 9.70699 1.82956 9.83213 1.80383C9.94288 1.78105 10.0571 1.78105 10.1679 1.80383C10.293 1.82956 10.4112 1.89521 10.6475 2.0265L11.875 2.70842M15.625 4.79175L16.8142 5.45244C17.0638 5.59111 17.1886 5.66045 17.2795 5.75906C17.3599 5.8463 17.4207 5.9497 17.4579 6.06235C17.5 6.18968 17.5 6.33244 17.5 6.61798L17.5 7.91675M17.5 12.0834L17.5 13.3822C17.5 13.6678 17.5 13.8105 17.4579 13.9379C17.4207 14.0505 17.3599 14.1539 17.2795 14.2412C17.1886 14.3398 17.0638 14.4091 16.8142 14.5478L15.625 15.2084M8.125 8.95842L10 10.0001M10 10.0001L11.875 8.95842M10 10.0001V12.0834M2.91667 6.06668L4.375 6.87508M15.625 6.87508L17.0833 6.06678M10 16.2501V17.9168" stroke="white" stroke-width="1.5" stroke-linecap="round" stroke-linejoin="round"/>
<path d="M8.125 17.2917L9.35246 17.9737C9.5888 18.105 9.70697 18.1707 9.83212 18.1964C9.94288 18.2192 10.0571 18.2192 10.1679 18.1964C10.293 18.1707 10.4112 18.105 10.6475 17.9737L11.875 17.2917M4.375 15.2084L3.18583 14.5478C2.93622 14.4091 2.81141 14.3398 2.72053 14.2412C2.64014 14.1539 2.57929 14.0505 2.54207 13.9379C2.5 13.8105 2.5 13.6678 2.5 13.3822V12.0834M2.5 7.91675V6.61791C2.5 6.33237 2.5 6.18959 2.54207 6.06226C2.57929 5.94961 2.64014 5.8462 2.72054 5.75896C2.81142 5.66035 2.93623 5.59101 3.18584 5.45235L4.375 4.79175M8.125 2.70842L9.35249 2.0265C9.58882 1.89521 9.70699 1.82956 9.83213 1.80383C9.94288 1.78105 10.0571 1.78105 10.1679 1.80383C10.293 1.82956 10.4112 1.89521 10.6475 2.0265L11.875 2.70842M15.625 4.79175L16.8142 5.45244C17.0638 5.59111 17.1886 5.66045 17.2795 5.75906C17.3599 5.8463 17.4207 5.9497 17.4579 6.06235C17.5 6.18968 17.5 6.33244 17.5 6.61798L17.5 7.91675M17.5 12.0834L17.5 13.3822C17.5 13.6678 17.5 13.8105 17.4579 13.9379C17.4207 14.0505 17.3599 14.1539 17.2795 14.2412C17.1886 14.3398 17.0638 14.4091 16.8142 14.5478L15.625 15.2084M8.125 8.95842L10 10.0001M10 10.0001L11.875 8.95842M10 10.0001V12.0834M2.91667 6.06668L4.375 6.87508M15.625 6.87508L17.0833 6.06678M10 16.2501V17.9168" stroke="url(#paint0_linear_9_27933)" stroke-width="1.5" stroke-linecap="round" stroke-linejoin="round"/>
<defs>
<linearGradient id="paint0_linear_9_27933" x1="10" y1="1.00012" x2="10" y2="18.0001" gradientUnits="userSpaceOnUse">
<stop stop-color="white"/>
<stop offset="1" stop-color="#999999"/>
</linearGradient>
</defs>
</svg>
