<svg width="141" height="30" viewBox="0 0 141 30" fill="none" xmlns="http://www.w3.org/2000/svg">
<path d="M37.4329 0.418346H31.8353V6.01596H37.4329V0.418346Z" fill="#595D66"/>
<path d="M37.2936 29.5817V9.42231H31.9948V29.5817H37.2936ZM72.5127 29.7809V24.8406C71.7358 24.8406 71.0784 24.8008 70.6004 24.7211C70.0426 24.6414 69.6243 24.4422 69.3454 24.1633C69.0665 23.8845 68.8872 23.4861 68.7876 22.9681C68.7079 22.4701 68.6681 21.8127 68.6681 21.0159V13.9641H72.5127V9.42231H68.6681V1.55378H63.3494V21.0558C63.3494 22.7092 63.4888 24.1036 63.7677 25.2191C64.0466 26.3147 64.5247 27.2112 65.182 27.8884C65.8394 28.5657 66.7159 29.0438 67.7717 29.3426C68.8474 29.6414 70.202 29.7809 71.8155 29.7809H72.5127ZM102.951 29.5817V0H97.6322V29.5817H102.951ZM58.2298 11.3944C56.7557 9.8008 54.684 9.00398 52.0545 9.00398C50.7796 9.00398 49.6243 9.26295 48.5685 9.78088C47.5326 10.2988 46.6362 11.0159 45.939 11.9323L45.6402 12.3108V9.42231H40.4012V29.5817H45.68V18.8446V19.5817C45.68 19.4622 45.68 19.3426 45.68 19.2231C45.7398 17.3307 46.198 15.9363 47.0745 15.0398C48.0107 14.0837 49.1462 13.6056 50.441 13.6056C51.9749 13.6056 53.1502 14.0837 53.9271 15C54.684 15.9163 55.0824 17.2112 55.0824 18.8645V29.5618H60.441V18.1275C60.4609 15.259 59.7039 12.988 58.2298 11.3944ZM94.8832 19.4622C94.8832 18.008 94.6243 16.6534 94.1263 15.3785C93.6083 14.1235 92.8912 13.008 91.9948 12.0518C91.0784 11.0956 89.9828 10.3586 88.7079 9.82072C87.433 9.28287 86.0187 9.0239 84.4848 9.0239C83.0306 9.0239 81.6561 9.30279 80.3812 9.84064C79.1063 10.3984 77.9908 11.1355 77.0545 12.0717C76.1183 13.008 75.3613 14.1235 74.8235 15.3984C74.2657 16.6733 74.0067 18.0478 74.0067 19.502C74.0067 20.9562 74.2657 22.3307 74.7836 23.6056C75.3016 24.8805 76.0386 25.996 76.9549 26.9323C77.8713 27.8685 79.0067 28.6255 80.3215 29.1633C81.6362 29.7211 83.0904 30 84.6442 30C89.1462 30 91.935 27.9482 93.6083 26.0359L89.7836 23.1275C88.9868 24.0837 87.0745 25.3785 84.684 25.3785C83.19 25.3785 81.9549 25.0398 81.0187 24.3426C80.0824 23.6653 79.445 22.7092 79.1063 21.5339L79.0466 21.3546H94.8832V19.4622ZM79.0864 17.6096C79.0864 16.1355 80.7796 13.5657 84.4251 13.5458C88.0705 13.5458 89.7836 16.1155 89.7836 17.5896L79.0864 17.6096Z" fill="#595D66"/>
<path d="M109.007 26.9522C108.907 26.7131 108.768 26.5139 108.589 26.3346C108.409 26.1553 108.21 26.0159 107.971 25.9163C107.732 25.8167 107.473 25.7569 107.214 25.7569C106.935 25.7569 106.696 25.8167 106.457 25.9163C106.218 26.0159 106.019 26.1553 105.84 26.3346C105.66 26.5139 105.521 26.7131 105.421 26.9522C105.322 27.1912 105.262 27.4502 105.262 27.7091C105.262 27.988 105.322 28.227 105.421 28.4661C105.521 28.7051 105.66 28.9043 105.84 29.0836C106.019 29.2629 106.218 29.4024 106.457 29.502C106.696 29.6016 106.955 29.6613 107.214 29.6613C107.493 29.6613 107.732 29.6016 107.971 29.502C108.21 29.4024 108.409 29.2629 108.589 29.0836C108.768 28.9043 108.907 28.7051 109.007 28.4661C109.106 28.227 109.166 27.9681 109.166 27.7091C109.166 27.4502 109.106 27.1912 109.007 26.9522ZM108.688 28.3466C108.608 28.5458 108.489 28.7251 108.35 28.8645C108.21 29.0039 108.031 29.1235 107.832 29.2031C107.632 29.2828 107.433 29.3227 107.194 29.3227C106.975 29.3227 106.756 29.2828 106.557 29.2031C106.357 29.1235 106.178 29.0039 106.039 28.8645C105.899 28.7251 105.78 28.5458 105.7 28.3466C105.62 28.1474 105.581 27.9482 105.581 27.7091C105.581 27.49 105.62 27.2709 105.7 27.0717C105.78 26.8725 105.899 26.6932 106.039 26.5537C106.178 26.4143 106.357 26.2948 106.557 26.2151C106.756 26.1354 106.955 26.0956 107.194 26.0956C107.413 26.0956 107.632 26.1354 107.832 26.2151C108.031 26.2948 108.21 26.4143 108.35 26.5537C108.489 26.6932 108.608 26.8725 108.688 27.0717C108.768 27.2709 108.808 27.4701 108.808 27.7091C108.828 27.9482 108.768 28.1474 108.688 28.3466ZM107.573 27.8685C107.732 27.8486 107.852 27.7888 107.951 27.6892C108.051 27.5896 108.11 27.4502 108.11 27.251C108.11 27.0318 108.051 26.8725 107.911 26.7529C107.792 26.6334 107.573 26.5737 107.314 26.5737H106.437V28.8247H106.855V27.9083H107.154L107.712 28.8247H108.15L107.573 27.8685ZM107.354 27.5498C107.294 27.5498 107.234 27.5498 107.154 27.5498H106.855V26.9123H107.154C107.214 26.9123 107.274 26.9123 107.354 26.9123C107.413 26.9123 107.473 26.9322 107.533 26.9522C107.593 26.9721 107.632 27.0119 107.652 27.0518C107.672 27.0916 107.692 27.1514 107.692 27.231C107.692 27.3107 107.672 27.3705 107.652 27.4103C107.612 27.4502 107.573 27.49 107.533 27.5099C107.473 27.5298 107.413 27.5498 107.354 27.5498Z" fill="#595D66"/>
</svg>
