<svg width="140" height="28" viewBox="0 0 140 28" fill="none" xmlns="http://www.w3.org/2000/svg">
<g clip-path="url(#clip0_9_27908)">
<path d="M58.9594 5.59991V22.3999H56.0428V9.21658H56.0039L50.7928 22.3999H48.8483L43.5206 9.21658H43.4817V22.3999H40.7983V5.59991H44.9983L49.8206 18.0444H49.8983L54.9928 5.59991H58.9594ZM61.3706 6.88325C61.3706 6.41658 61.5261 6.02769 61.8761 5.71658C62.2261 5.40547 62.615 5.24991 63.0817 5.24991C63.5872 5.24991 64.015 5.40547 64.3261 5.71658C64.6372 6.02769 64.8317 6.41658 64.8317 6.88325C64.8317 7.34991 64.6761 7.7388 64.3261 8.04991C63.9761 8.36102 63.5872 8.51658 63.0817 8.51658C62.5761 8.51658 62.1872 8.36102 61.8761 8.04991C61.565 7.69991 61.3706 7.31102 61.3706 6.88325ZM64.5206 10.3444V22.3999H61.6817V10.3444H64.5206ZM73.115 20.3388C73.5428 20.3388 74.0094 20.261 74.515 20.0277C75.0206 19.8332 75.4872 19.561 75.915 19.2499V21.8944C75.4483 22.1666 74.9428 22.361 74.3595 22.4777C73.7761 22.5944 73.1539 22.6721 72.4539 22.6721C70.665 22.6721 69.2261 22.1277 68.1372 20.9999C67.0095 19.8721 66.465 18.4332 66.465 16.7221C66.465 14.7777 67.0483 13.1832 68.1761 11.9388C69.3039 10.6944 70.8983 10.0721 72.9983 10.0721C73.5428 10.0721 74.0872 10.1499 74.5928 10.2666C75.1372 10.3832 75.565 10.5777 75.8761 10.7332V13.4555C75.4483 13.1444 74.9817 12.8721 74.5539 12.7166C74.0872 12.561 73.6206 12.4444 73.1539 12.4444C72.0261 12.4444 71.1317 12.7944 70.4317 13.5332C69.7317 14.2721 69.4206 15.2444 69.4206 16.4888C69.4206 17.6944 69.7706 18.6666 70.4317 19.3277C71.0928 19.9888 71.9872 20.3388 73.115 20.3388ZM83.965 10.1499C84.1983 10.1499 84.3928 10.1499 84.5872 10.1888C84.7817 10.2277 84.9372 10.2666 85.0539 10.3055V13.1832C84.8983 13.0666 84.7039 12.9499 84.3928 12.8721C84.0817 12.7944 83.7706 12.7166 83.3428 12.7166C82.6428 12.7166 82.0595 13.0277 81.5928 13.611C81.1261 14.1944 80.8539 15.0888 80.8539 16.3332V22.3999H78.015V10.3444H80.8539V12.2499H80.8928C81.165 11.5888 81.5539 11.0832 82.0595 10.6944C82.6039 10.3444 83.2261 10.1499 83.965 10.1499ZM85.2094 16.5666C85.2094 14.5832 85.7928 12.9888 86.8817 11.8221C88.0095 10.6555 89.565 10.0721 91.5483 10.0721C93.415 10.0721 94.8928 10.6166 95.9428 11.7444C96.9928 12.8721 97.5372 14.3888 97.5372 16.2944C97.5372 18.2388 96.9539 19.7944 95.865 20.961C94.7372 22.1277 93.2206 22.711 91.2761 22.711C89.4095 22.711 87.9317 22.1666 86.8428 21.0777C85.7539 19.9499 85.2094 18.4332 85.2094 16.5666ZM88.165 16.4499C88.165 17.6944 88.4372 18.6666 89.0206 19.3277C89.6039 19.9888 90.4206 20.3388 91.4706 20.3388C92.4817 20.3388 93.2983 20.0277 93.8428 19.3277C94.3872 18.6666 94.6595 17.6944 94.6595 16.3721C94.6595 15.0888 94.3872 14.1166 93.8428 13.4166C93.2983 12.7555 92.4817 12.4055 91.5095 12.4055C90.4595 12.4055 89.6817 12.7555 89.0983 13.4555C88.4372 14.1944 88.165 15.1666 88.165 16.4499ZM101.776 13.5332C101.776 13.9221 101.893 14.2721 102.165 14.5055C102.437 14.7388 102.982 15.011 103.876 15.361C105.004 15.8277 105.821 16.3332 106.248 16.8777C106.715 17.461 106.948 18.1221 106.948 18.9388C106.948 20.0666 106.521 20.961 105.626 21.661C104.771 22.361 103.565 22.6721 102.087 22.6721C101.582 22.6721 101.037 22.5944 100.415 22.4777C99.7928 22.361 99.2872 22.2055 98.8595 22.011V19.211C99.365 19.561 99.9483 19.8721 100.532 20.0666C101.115 20.261 101.659 20.3777 102.165 20.3777C102.787 20.3777 103.293 20.2999 103.565 20.1055C103.876 19.911 104.032 19.6388 104.032 19.211C104.032 18.8221 103.876 18.511 103.565 18.1999C103.254 17.9277 102.632 17.6166 101.776 17.2666C100.726 16.8388 99.9872 16.3332 99.5595 15.7888C99.1317 15.2444 98.8983 14.5444 98.8983 13.6888C98.8983 12.5999 99.3261 11.7055 100.182 11.0055C101.037 10.3055 102.165 9.95547 103.526 9.95547C103.954 9.95547 104.421 9.99436 104.926 10.111C105.432 10.2277 105.898 10.3444 106.248 10.461V13.2221C105.859 12.9888 105.432 12.7555 104.926 12.561C104.421 12.3666 103.915 12.2888 103.448 12.2888C102.904 12.2888 102.476 12.4055 102.204 12.5999C101.932 12.8721 101.776 13.1444 101.776 13.5332ZM108.154 16.5666C108.154 14.5832 108.737 12.9888 109.826 11.8221C110.954 10.6555 112.509 10.0721 114.493 10.0721C116.359 10.0721 117.837 10.6166 118.887 11.7444C119.937 12.8721 120.482 14.3888 120.482 16.2944C120.482 18.2388 119.898 19.7944 118.809 20.961C117.682 22.1277 116.165 22.711 114.221 22.711C112.354 22.711 110.876 22.1666 109.787 21.0777C108.737 19.9499 108.154 18.4332 108.154 16.5666ZM111.109 16.4499C111.109 17.6944 111.382 18.6666 111.965 19.3277C112.548 19.9888 113.365 20.3388 114.415 20.3388C115.426 20.3388 116.243 20.0277 116.787 19.3277C117.332 18.6666 117.604 17.6944 117.604 16.3721C117.604 15.0888 117.332 14.1166 116.787 13.4166C116.243 12.7555 115.426 12.4055 114.454 12.4055C113.404 12.4055 112.626 12.7555 112.043 13.4555C111.421 14.1944 111.109 15.1666 111.109 16.4499ZM129.932 12.6777H125.693V22.3999H122.815V12.6777H120.793V10.3444H122.815V8.67214C122.815 7.42769 123.243 6.37769 124.059 5.56102C124.876 4.74436 125.926 4.35547 127.209 4.35547C127.559 4.35547 127.871 4.39436 128.143 4.39436C128.415 4.39436 128.648 4.47214 128.843 4.54991V6.99991C128.765 6.96102 128.571 6.88325 128.337 6.80547C128.104 6.72769 127.832 6.6888 127.521 6.6888C126.937 6.6888 126.471 6.88325 126.159 7.23325C125.848 7.58325 125.693 8.16658 125.693 8.86658V10.3055H129.932V7.58325L132.771 6.72769V10.3055H135.648V12.6388H132.771V18.2777C132.771 19.0166 132.926 19.5221 133.159 19.8332C133.432 20.1444 133.859 20.2999 134.443 20.2999C134.598 20.2999 134.793 20.261 135.026 20.1832C135.259 20.1055 135.454 20.0277 135.609 19.911V22.2444C135.415 22.361 135.143 22.4388 134.715 22.5166C134.287 22.5944 133.898 22.6332 133.471 22.6332C132.265 22.6332 131.371 22.3221 130.787 21.6999C130.204 21.0777 129.893 20.1055 129.893 18.8221L129.932 12.6777Z" fill="#595D66"/>
<path d="M4.36621 0.000366211H17.6993V13.3335H4.36621V0.000366211Z" fill="#595D66"/>
<path d="M19.0342 0.000366211H32.3673V13.3335H19.0342V0.000366211Z" fill="#595D66"/>
<path d="M4.36621 14.6665H17.6993V27.9996H4.36621V14.6665Z" fill="#595D66"/>
<path d="M19.0342 14.6665H32.3673V27.9996H19.0342V14.6665Z" fill="#595D66"/>
</g>
<defs>
<clipPath id="clip0_9_27908">
<rect width="131.289" height="28" fill="white" transform="translate(4.35559)"/>
</clipPath>
</defs>
</svg>
