<svg width="145" height="28" viewBox="0 0 145 28" fill="none" xmlns="http://www.w3.org/2000/svg">
<g clip-path="url(#clip0_9_27916)">
<path d="M88.5285 5.52906V23.5395H93.6111V5.52906H88.5285ZM48.5392 5.49854V23.5243H53.6676V9.528L57.6665 9.54326C58.9791 9.54326 59.8949 9.86378 60.5207 10.5354C61.3297 11.3901 61.6502 12.779 61.6502 15.2974V23.5243H66.626V13.5727C66.626 6.46011 62.0928 5.49854 57.6665 5.49854H48.5392ZM96.7248 5.52906V23.5395H104.967C109.363 23.5395 110.797 22.8069 112.339 21.1737C113.438 20.029 114.14 17.4953 114.14 14.7327C114.14 12.199 113.545 9.9401 112.492 8.53589C110.629 6.01748 107.913 5.52906 103.853 5.52906H96.7248ZM101.762 9.43642H103.944C107.119 9.43642 109.164 10.8559 109.164 14.5496C109.164 18.2432 107.119 19.678 103.944 19.678H101.762V9.43642ZM81.2022 5.52906L76.9591 19.8001L72.8991 5.52906H67.4044L73.2044 23.5395H80.5306L86.3917 5.52906H81.2022ZM116.521 23.5395H121.604V5.52906H116.521V23.5395ZM130.777 5.52906L123.679 23.5243H128.686L129.815 20.3343H138.21L139.278 23.509H144.727L137.569 5.52906H130.777ZM134.074 8.81063L137.157 17.2359H130.899L134.074 8.81063Z" fill="#595D66"/>
<path d="M15.7351 8.5205V6.04788C15.9793 6.03262 16.2235 6.01735 16.4677 6.01735C23.2445 5.80367 27.6861 11.8479 27.6861 11.8479C27.6861 11.8479 22.8935 18.5026 17.7498 18.5026C17.063 18.5026 16.3914 18.3957 15.7503 18.182V10.6726C18.3909 10.9931 18.9251 12.1531 20.4972 14.7936L24.0229 11.8326C24.0229 11.8326 21.4435 8.45945 17.1088 8.45945C16.6509 8.44419 16.193 8.47471 15.7351 8.5205ZM15.7351 0.339478V4.03315L16.4677 3.98736C25.885 3.66683 32.0361 11.7105 32.0361 11.7105C32.0361 11.7105 24.9845 20.2884 17.643 20.2884C17.0019 20.2884 16.3761 20.2273 15.7503 20.1205V22.4099C16.2693 22.471 16.8035 22.5168 17.3224 22.5168C24.1603 22.5168 29.1056 19.0215 33.8982 14.9005C34.6919 15.5415 37.9429 17.0831 38.6145 17.7547C34.0661 21.5705 23.4582 24.6383 17.4445 24.6383C16.8646 24.6383 16.3151 24.6078 15.7656 24.5468V27.7673H41.7434V0.339478H15.7351ZM15.7351 18.182V20.1357C9.41616 19.0063 7.6609 12.4279 7.6609 12.4279C7.6609 12.4279 10.6983 9.06997 15.7351 8.5205V10.6573H15.7198C13.0793 10.3368 11.0035 12.8094 11.0035 12.8094C11.0035 12.8094 12.1788 16.9763 15.7351 18.182ZM4.5167 12.1531C4.5167 12.1531 8.25616 6.62788 15.7503 6.04788V4.03315C7.44722 4.70472 0.27356 11.7258 0.27356 11.7258C0.27356 11.7258 4.33355 23.4783 15.7351 24.5468V22.4099C7.3709 21.372 4.5167 12.1531 4.5167 12.1531Z" fill="#595D66"/>
</g>
<defs>
<clipPath id="clip0_9_27916">
<rect width="144.45" height="27" fill="white" transform="translate(0.274292 0.5)"/>
</clipPath>
</defs>
</svg>
