<svg width="380" height="380" viewBox="0 0 380 380" fill="none" xmlns="http://www.w3.org/2000/svg">
<g opacity="0.2" filter="url(#filter0_f_23_36467)">
<path d="M-135.439 -170.072L-159.724 -138.12L20.3014 466.487L360.302 19.1594L-135.439 -170.072Z" fill="url(#paint0_linear_23_36467)"/>
<path d="M-135.439 -170.072L-159.724 -138.12L20.3014 466.487L360.302 19.1594L-135.439 -170.072Z" fill="url(#paint1_linear_23_36467)"/>
<path d="M-135.439 -170.072L-159.724 -138.12L20.3014 466.487L360.302 19.1594L-135.439 -170.072Z" fill="#1374E0"/>
</g>
<g opacity="0.2" filter="url(#filter1_f_23_36467)">
<path d="M-124.858 -125.807L-128.26 -120.249L342.31 295.678L389.936 217.856L-124.858 -125.807Z" fill="url(#paint2_linear_23_36467)"/>
</g>
<g opacity="0.2" filter="url(#filter2_f_23_36467)">
<path d="M-98.8388 -89.7485L-104.111 -85.4736L86.9772 388.691L160.791 328.843L-98.8388 -89.7485Z" fill="url(#paint3_linear_23_36467)"/>
</g>
<g opacity="0.1" filter="url(#filter3_f_23_36467)">
<path d="M-83.0123 -90.7755L-84.7791 -88.9935L171.116 253.393L195.85 228.444L-83.0123 -90.7755Z" fill="url(#paint4_linear_23_36467)"/>
</g>
<g opacity="0.2" filter="url(#filter4_f_23_36467)">
<path d="M-90.6111 -93.4382L-92.3472 -91.6407L172.598 245.154L196.903 219.989L-90.6111 -93.4382Z" fill="url(#paint5_linear_23_36467)"/>
</g>
<defs>
<filter id="filter0_f_23_36467" x="-206.502" y="-216.85" width="613.581" height="730.114" filterUnits="userSpaceOnUse" color-interpolation-filters="sRGB">
<feFlood flood-opacity="0" result="BackgroundImageFix"/>
<feBlend mode="normal" in="SourceGraphic" in2="BackgroundImageFix" result="shape"/>
<feGaussianBlur stdDeviation="23.3889" result="effect1_foregroundBlur_23_36467"/>
</filter>
<filter id="filter1_f_23_36467" x="-164.716" y="-162.263" width="591.107" height="494.397" filterUnits="userSpaceOnUse" color-interpolation-filters="sRGB">
<feFlood flood-opacity="0" result="BackgroundImageFix"/>
<feBlend mode="normal" in="SourceGraphic" in2="BackgroundImageFix" result="shape"/>
<feGaussianBlur stdDeviation="18.228" result="effect1_foregroundBlur_23_36467"/>
</filter>
<filter id="filter2_f_23_36467" x="-132.809" y="-118.447" width="322.298" height="535.836" filterUnits="userSpaceOnUse" color-interpolation-filters="sRGB">
<feFlood flood-opacity="0" result="BackgroundImageFix"/>
<feBlend mode="normal" in="SourceGraphic" in2="BackgroundImageFix" result="shape"/>
<feGaussianBlur stdDeviation="14.349" result="effect1_foregroundBlur_23_36467"/>
</filter>
<filter id="filter3_f_23_36467" x="-97.8504" y="-103.847" width="306.772" height="370.311" filterUnits="userSpaceOnUse" color-interpolation-filters="sRGB">
<feFlood flood-opacity="0" result="BackgroundImageFix"/>
<feBlend mode="normal" in="SourceGraphic" in2="BackgroundImageFix" result="shape"/>
<feGaussianBlur stdDeviation="6.53564" result="effect1_foregroundBlur_23_36467"/>
</filter>
<filter id="filter4_f_23_36467" x="-113.772" y="-114.863" width="332.1" height="381.443" filterUnits="userSpaceOnUse" color-interpolation-filters="sRGB">
<feFlood flood-opacity="0" result="BackgroundImageFix"/>
<feBlend mode="normal" in="SourceGraphic" in2="BackgroundImageFix" result="shape"/>
<feGaussianBlur stdDeviation="10.7125" result="effect1_foregroundBlur_23_36467"/>
</filter>
<linearGradient id="paint0_linear_23_36467" x1="-168.172" y1="-127.006" x2="237.208" y2="181.11" gradientUnits="userSpaceOnUse">
<stop stop-color="white"/>
<stop offset="1" stop-color="white" stop-opacity="0"/>
</linearGradient>
<linearGradient id="paint1_linear_23_36467" x1="-168.172" y1="-127.006" x2="237.208" y2="181.11" gradientUnits="userSpaceOnUse">
<stop stop-color="#001FD6"/>
</linearGradient>
<linearGradient id="paint2_linear_23_36467" x1="-129.443" y1="-118.315" x2="398.091" y2="204.531" gradientUnits="userSpaceOnUse">
<stop stop-color="white"/>
<stop offset="1" stop-color="white" stop-opacity="0"/>
</linearGradient>
<linearGradient id="paint3_linear_23_36467" x1="-105.945" y1="-83.9867" x2="201.811" y2="295.583" gradientUnits="userSpaceOnUse">
<stop stop-color="white"/>
<stop offset="1" stop-color="white" stop-opacity="0"/>
</linearGradient>
<linearGradient id="paint4_linear_23_36467" x1="-85.3936" y1="-88.3736" x2="214.845" y2="209.284" gradientUnits="userSpaceOnUse">
<stop stop-color="white"/>
<stop offset="1" stop-color="white" stop-opacity="0"/>
</linearGradient>
<linearGradient id="paint5_linear_23_36467" x1="-92.951" y1="-91.0154" x2="212.426" y2="203.916" gradientUnits="userSpaceOnUse">
<stop stop-color="white"/>
<stop offset="1" stop-color="white" stop-opacity="0"/>
</linearGradient>
</defs>
</svg>
