<svg width="380" height="380" viewBox="0 0 380 380" fill="none" xmlns="http://www.w3.org/2000/svg">
<g opacity="0.4" filter="url(#filter0_f_2001_109)">
<path d="M473.968 558.605L493.879 532.409L313.319 2.70815L34.5668 369.453L473.968 558.605Z" fill="url(#paint0_linear_2001_109)"/>
<path d="M473.968 558.605L493.879 532.409L313.319 2.70815L34.5668 369.453L473.968 558.605Z" fill="url(#paint1_linear_2001_109)"/>
<path d="M473.968 558.605L493.879 532.409L313.319 2.70815L34.5668 369.453L473.968 558.605Z" fill="#2B75C8"/>
</g>
<g opacity="0.5">
<g opacity="0.6" filter="url(#filter1_f_2001_109)">
<path d="M472.682 626.785L492.593 600.589L312.032 70.8881L33.2802 437.633L472.682 626.785Z" fill="#2087FB"/>
</g>
<g opacity="0.2" filter="url(#filter2_f_2001_109)">
<path d="M503.629 517.013L507.031 511.455L36.4613 95.5281L-11.1648 173.35L503.629 517.013Z" fill="url(#paint2_linear_2001_109)"/>
</g>
<g opacity="0.2" filter="url(#filter3_f_2001_109)">
<path d="M477.612 480.955L482.884 476.68L291.795 2.51478L217.982 62.3632L477.612 480.955Z" fill="url(#paint3_linear_2001_109)"/>
</g>
<g opacity="0.1" filter="url(#filter4_f_2001_109)">
<path d="M461.785 481.982L463.552 480.2L207.657 137.813L182.923 162.762L461.785 481.982Z" fill="url(#paint4_linear_2001_109)"/>
</g>
<g opacity="0.2" filter="url(#filter5_f_2001_109)">
<path d="M469.385 484.644L471.121 482.847L206.176 146.052L181.871 171.217L469.385 484.644Z" fill="url(#paint5_linear_2001_109)"/>
</g>
</g>
<defs>
<filter id="filter0_f_2001_109" x="-195.623" y="-227.482" width="919.693" height="1016.28" filterUnits="userSpaceOnUse" color-interpolation-filters="sRGB">
<feFlood flood-opacity="0" result="BackgroundImageFix"/>
<feBlend mode="normal" in="SourceGraphic" in2="BackgroundImageFix" result="shape"/>
<feGaussianBlur stdDeviation="115.095" result="effect1_foregroundBlur_2001_109"/>
</filter>
<filter id="filter1_f_2001_109" x="-146.913" y="-109.304" width="819.698" height="916.282" filterUnits="userSpaceOnUse" color-interpolation-filters="sRGB">
<feFlood flood-opacity="0" result="BackgroundImageFix"/>
<feBlend mode="normal" in="SourceGraphic" in2="BackgroundImageFix" result="shape"/>
<feGaussianBlur stdDeviation="90.0963" result="effect1_foregroundBlur_2001_109"/>
</filter>
<filter id="filter2_f_2001_109" x="-47.6208" y="59.0721" width="591.107" height="494.397" filterUnits="userSpaceOnUse" color-interpolation-filters="sRGB">
<feFlood flood-opacity="0" result="BackgroundImageFix"/>
<feBlend mode="normal" in="SourceGraphic" in2="BackgroundImageFix" result="shape"/>
<feGaussianBlur stdDeviation="18.228" result="effect1_foregroundBlur_2001_109"/>
</filter>
<filter id="filter3_f_2001_109" x="189.284" y="-26.1832" width="322.298" height="535.836" filterUnits="userSpaceOnUse" color-interpolation-filters="sRGB">
<feFlood flood-opacity="0" result="BackgroundImageFix"/>
<feBlend mode="normal" in="SourceGraphic" in2="BackgroundImageFix" result="shape"/>
<feGaussianBlur stdDeviation="14.349" result="effect1_foregroundBlur_2001_109"/>
</filter>
<filter id="filter4_f_2001_109" x="169.851" y="124.742" width="306.772" height="370.311" filterUnits="userSpaceOnUse" color-interpolation-filters="sRGB">
<feFlood flood-opacity="0" result="BackgroundImageFix"/>
<feBlend mode="normal" in="SourceGraphic" in2="BackgroundImageFix" result="shape"/>
<feGaussianBlur stdDeviation="6.53564" result="effect1_foregroundBlur_2001_109"/>
</filter>
<filter id="filter5_f_2001_109" x="160.446" y="124.627" width="332.1" height="381.443" filterUnits="userSpaceOnUse" color-interpolation-filters="sRGB">
<feFlood flood-opacity="0" result="BackgroundImageFix"/>
<feBlend mode="normal" in="SourceGraphic" in2="BackgroundImageFix" result="shape"/>
<feGaussianBlur stdDeviation="10.7125" result="effect1_foregroundBlur_2001_109"/>
</filter>
<linearGradient id="paint0_linear_2001_109" x1="500.805" y1="523.298" x2="131.173" y2="242.352" gradientUnits="userSpaceOnUse">
<stop stop-color="#444CFF"/>
<stop offset="1" stop-color="#8941FF"/>
</linearGradient>
<linearGradient id="paint1_linear_2001_109" x1="500.805" y1="523.298" x2="131.173" y2="242.352" gradientUnits="userSpaceOnUse">
<stop stop-color="#001FD6"/>
</linearGradient>
<linearGradient id="paint2_linear_2001_109" x1="508.214" y1="509.521" x2="-19.3199" y2="186.675" gradientUnits="userSpaceOnUse">
<stop stop-color="white"/>
<stop offset="1" stop-color="white" stop-opacity="0"/>
</linearGradient>
<linearGradient id="paint3_linear_2001_109" x1="484.718" y1="475.193" x2="176.961" y2="95.6227" gradientUnits="userSpaceOnUse">
<stop stop-color="white"/>
<stop offset="1" stop-color="white" stop-opacity="0"/>
</linearGradient>
<linearGradient id="paint4_linear_2001_109" x1="464.167" y1="479.58" x2="163.928" y2="181.922" gradientUnits="userSpaceOnUse">
<stop stop-color="white"/>
<stop offset="1" stop-color="white" stop-opacity="0"/>
</linearGradient>
<linearGradient id="paint5_linear_2001_109" x1="471.725" y1="482.222" x2="166.348" y2="187.29" gradientUnits="userSpaceOnUse">
<stop stop-color="white"/>
<stop offset="1" stop-color="white" stop-opacity="0"/>
</linearGradient>
</defs>
</svg>
