<svg width="40" height="41" viewBox="0 0 40 41" fill="none" xmlns="http://www.w3.org/2000/svg">
<g clip-path="url(#clip0_9144_35163)">
<path d="M20 0.5C31.0469 0.5 40 9.45312 40 20.5C40 31.5469 31.0469 40.5 20 40.5C8.95312 40.5 0 31.5469 0 20.5C0 9.45312 8.95312 0.5 20 0.5Z" fill="#5AABA6"/>
<g clip-path="url(#clip1_9144_35163)">
<path d="M27.2745 20.1165C28.2876 18.783 28.8376 17.1322 28.835 15.4324C28.835 11.2509 25.579 8 21.5621 8H12.7305V8.94573H21.3663C24.9164 8.94573 27.7944 11.806 27.7944 15.5C27.7965 16.9361 27.3527 18.3344 26.5289 19.4867L27.2745 20.1165Z" fill="white"/>
<path d="M26.2878 19.3337C27.2543 18.3113 27.7952 16.9341 27.7935 15.5C27.7935 14.0486 27.2394 12.6566 26.2532 11.6301C25.2669 10.6037 23.9292 10.027 22.5342 10.0267H15.0664V10.9734H22.7283C23.2913 10.973 23.8488 11.0881 24.3691 11.312C24.8893 11.5359 25.362 11.8643 25.7602 12.2784C26.1584 12.6925 26.4743 13.1842 26.6898 13.7254C26.9054 14.2666 27.0163 14.8466 27.0163 15.4324C27.017 16.0829 26.8807 16.7256 26.6168 17.3152C26.353 17.9049 25.9681 18.4271 25.4892 18.8452L26.2878 19.3337Z" fill="white"/>
<path d="M24.8457 18.6201C26.0744 18.0614 27.0149 16.8443 27.0149 15.4324C27.0149 13.492 25.2433 11.9191 23.3785 11.9191H16.8828V12.4591H23.3118C24.8508 12.4591 26.3634 13.7607 26.3634 15.3648C26.3634 16.6646 25.3733 17.7669 24.1771 18.1361L24.8457 18.6201Z" fill="white"/>
<path d="M10.1328 32.0543H11.5616V33.0001H10.1328V32.0543Z" fill="white"/>
<path d="M11.5586 30.1619H17.2728V30.8371H11.5586V30.1619Z" fill="white"/>
<path d="M11.5586 25.9733H17.6627V26.5142H11.5586V25.9733Z" fill="white"/>
<path d="M18.832 25.9733H22.7284V26.5142H18.832V25.9733Z" fill="white"/>
<path d="M12.7305 24.0809H14.8082V24.6219H12.7305V24.0809Z" fill="white"/>
<path d="M15.9766 24.0809H22.7296V24.6219H15.9766V24.0809Z" fill="white"/>
<path d="M18.1836 15.5676H22.599V16.1086H18.1836V15.5676Z" fill="white"/>
<path d="M12.9883 11.9191H15.4559V12.46H12.9883V11.9191Z" fill="white"/>
<path d="M13.6367 13.9457H22.7274V14.4866H13.6367V13.9457Z" fill="white"/>
<path d="M11.3008 15.5676H16.885V16.1086H11.3008V15.5676Z" fill="white"/>
<path d="M12.8594 31.919V32.8647H22.729C26.7476 32.8647 30.0019 29.6121 30.0019 25.4324C30.0019 23.4253 29.2356 21.5005 27.8717 20.0813C26.5078 18.662 24.6579 17.8647 22.729 17.8647H16.3659V18.6761H22.5349C24.2398 18.6764 25.8748 19.3813 27.0803 20.6358C28.2858 21.8903 28.963 23.5916 28.963 25.3656C28.963 29.0605 26.085 31.9199 22.5349 31.9199L12.8594 31.919Z" fill="white"/>
<path d="M14.418 19.8915V20.8381H23.8985C24.4614 20.838 25.0187 20.9532 25.5388 21.1773C26.0588 21.4013 26.5313 21.7297 26.9293 22.1438C27.3274 22.5579 27.6431 23.0495 27.8585 23.5906C28.0739 24.1316 28.1848 24.7115 28.1848 25.2972C28.1848 26.48 27.7332 27.6144 26.9294 28.4508C26.1256 29.2872 25.0353 29.7571 23.8985 29.7571H18.3143V30.8381H23.701C24.3918 30.8381 25.0757 30.6965 25.7139 30.4214C26.352 30.1464 26.9318 29.7432 27.4202 29.2349C27.9086 28.7267 28.296 28.1233 28.5602 27.4593C28.8245 26.7952 28.9604 26.0835 28.9603 25.3648C28.9603 23.9133 28.4062 22.5213 27.42 21.4949C26.4337 20.4685 25.096 19.8917 23.701 19.8915H14.418Z" fill="white"/>
<path d="M17.1429 21.9191V22.4591H24.4808C26.0198 22.4591 27.5324 23.7607 27.5324 25.3648C27.5324 26.9662 26.0233 28.2705 24.4808 28.2705H10V28.9458H24.5458C26.4106 28.9458 28.1822 27.3728 28.1822 25.4324C28.1822 23.492 26.4106 21.9191 24.5458 21.9191H17.1429Z" fill="white"/>
</g>
</g>
<defs>
<clipPath id="clip0_9144_35163">
<rect width="40" height="40" fill="white" transform="translate(0 0.5)"/>
</clipPath>
<clipPath id="clip1_9144_35163">
<rect width="20" height="25" fill="white" transform="translate(10 8)"/>
</clipPath>
</defs>
</svg>
