<svg width="40" height="41" viewBox="0 0 40 41" fill="none" xmlns="http://www.w3.org/2000/svg">
<path fill-rule="evenodd" clip-rule="evenodd" d="M20 0.5C31.0469 0.5 40 9.45312 40 20.5C40 31.5469 31.0469 40.5 20 40.5C8.95312 40.5 0 31.5469 0 20.5C0 9.45312 8.95312 0.5 20 0.5Z" fill="url(#paint0_radial_9144_35168)"/>
<path fill-rule="evenodd" clip-rule="evenodd" d="M20 0.5C31.0469 0.5 40 9.45312 40 20.5C40 31.5469 31.0469 40.5 20 40.5C8.95312 40.5 0 31.5469 0 20.5C0 9.45312 8.95312 0.5 20 0.5Z" fill="#1972E2"/>
<path opacity="0.3" d="M32.3632 23.6229L26.5688 13.5718C25.2985 11.4769 22.2007 11.4546 20.9749 13.6609L14.8908 24.1132C13.7542 26.0298 15.1582 28.4367 17.4314 28.4367H29.622C31.9175 28.4367 33.6336 25.9629 32.3632 23.6229Z" fill="white"/>
<path opacity="0.5" d="M24.0074 24.403L23.6509 23.779C23.3166 23.1995 22.5811 21.9515 22.5811 21.9515L17.6781 13.4382C16.4078 11.5438 13.3992 11.3878 12.1289 13.7725L6.42361 23.6453C5.24243 25.7179 6.64647 28.4145 9.20939 28.4368H21.3331H26.5035H29.579C26.4367 28.4591 25.4338 26.8322 24.0074 24.403Z" fill="white"/>
<path opacity="0.3" d="M24.0086 24.4029L23.652 23.779C23.3177 23.1995 22.5823 21.9515 22.5823 21.9515L19.4176 16.3799L14.8712 24.1355C13.7347 26.0521 15.1387 28.459 17.4119 28.459H21.312H26.4824H29.5802C26.4156 28.4367 25.4349 26.8321 24.0086 24.4029Z" fill="white"/>
<defs>
<radialGradient id="paint0_radial_9144_35168" cx="0" cy="0" r="1" gradientUnits="userSpaceOnUse" gradientTransform="translate(0.000123978 20.5006) scale(40)">
<stop stop-color="#5D9DF6"/>
<stop offset="1" stop-color="#006FFF"/>
</radialGradient>
</defs>
</svg>
