<svg width="40" height="41" viewBox="0 0 40 41" fill="none" xmlns="http://www.w3.org/2000/svg">
<rect y="0.5" width="40" height="40" rx="20" fill="#FF007A"/>
<path d="M14.56 9.35378C14.2592 9.30707 14.2465 9.30155 14.3881 9.27979C14.6593 9.23797 15.2998 9.29495 15.7412 9.40003C16.7717 9.64537 17.7093 10.2738 18.7102 11.3899L18.9761 11.6864L19.3564 11.6252C20.9589 11.3672 22.5891 11.5722 23.9526 12.2031C24.3277 12.3766 24.9191 12.7222 24.993 12.8109C25.0166 12.8392 25.0598 13.0214 25.089 13.2157C25.1903 13.8881 25.1397 14.4035 24.9343 14.7884C24.8226 14.9979 24.8163 15.0643 24.8915 15.2436C24.9514 15.3866 25.1186 15.4925 25.2842 15.4923C25.623 15.4918 25.9877 14.9432 26.1567 14.1799L26.2238 13.8767L26.3568 14.0275C27.0862 14.8552 27.6591 15.9839 27.7575 16.7874L27.7831 16.9968L27.6605 16.8064C27.4495 16.4787 27.2375 16.2556 26.966 16.0757C26.4766 15.7514 25.9592 15.6411 24.5888 15.5687C23.3512 15.5034 22.6507 15.3975 21.9561 15.1707C20.7744 14.7848 20.1786 14.2708 18.7749 12.4262C18.1514 11.6069 17.766 11.1536 17.3826 10.7885C16.5116 9.95902 15.6556 9.52399 14.56 9.35378Z" fill="white"/>
<path d="M25.2715 11.1831C25.3026 10.6342 25.377 10.272 25.5264 9.94131C25.5856 9.81039 25.641 9.70325 25.6496 9.70325C25.6581 9.70325 25.6324 9.79988 25.5924 9.91795C25.4838 10.2389 25.4659 10.6779 25.5407 11.1887C25.6358 11.8367 25.6898 11.9302 26.3737 12.6302C26.6945 12.9586 27.0675 13.3727 27.2028 13.5505L27.4487 13.8738L27.2028 13.6427C26.902 13.3602 26.2104 12.8092 26.0576 12.7304C25.9552 12.6776 25.9399 12.6785 25.8767 12.7415C25.8185 12.7996 25.8062 12.8868 25.7982 13.2991C25.7856 13.9417 25.6981 14.3542 25.487 14.7667C25.3729 14.9897 25.3549 14.9422 25.4582 14.6904C25.5353 14.5024 25.5432 14.4197 25.5426 13.7976C25.5414 12.5476 25.3932 12.2471 24.5243 11.7323C24.3042 11.6019 23.9415 11.4138 23.7184 11.3144C23.4952 11.2149 23.318 11.1282 23.3244 11.1218C23.349 11.0972 24.1964 11.3449 24.5375 11.4763C25.0448 11.6718 25.1285 11.6971 25.1901 11.6736C25.2314 11.6578 25.2514 11.5373 25.2715 11.1831Z" fill="white"/>
<path d="M15.1443 13.3216C14.5337 12.4796 14.1559 11.1886 14.2376 10.2236L14.263 9.92493L14.4019 9.95035C14.663 9.99804 15.113 10.1658 15.3238 10.294C15.9021 10.6458 16.1524 11.1089 16.4071 12.2982C16.4817 12.6465 16.5796 13.0407 16.6247 13.1742C16.6972 13.389 16.9712 13.8908 17.1939 14.2166C17.3544 14.4513 17.2478 14.5625 16.8931 14.5304C16.3514 14.4815 15.6177 13.9743 15.1443 13.3216Z" fill="white"/>
<path d="M24.5306 19.588C21.6769 18.4372 20.6719 17.4383 20.6719 15.753C20.6719 15.505 20.6804 15.302 20.6908 15.302C20.7012 15.302 20.8116 15.3839 20.9361 15.4839C21.5148 15.9488 22.1628 16.1473 23.9567 16.4094C25.0123 16.5637 25.6063 16.6883 26.1543 16.8703C27.896 17.4488 28.9737 18.6229 29.2306 20.222C29.3053 20.6867 29.2615 21.5581 29.1404 22.0173C29.0449 22.3801 28.7532 23.0339 28.6758 23.059C28.6544 23.0659 28.6334 22.9836 28.6279 22.8716C28.5985 22.2711 28.2955 21.6865 27.7867 21.2486C27.2082 20.7507 26.431 20.3543 24.5306 19.588Z" fill="white"/>
<path d="M22.5276 20.066C22.4918 19.853 22.4298 19.5808 22.3898 19.4613L22.317 19.244L22.4522 19.3961C22.6394 19.6065 22.7873 19.8757 22.9126 20.2343C23.0083 20.508 23.019 20.5893 23.0183 21.0341C23.0176 21.4707 23.0057 21.5623 22.9173 21.8086C22.778 22.1971 22.6051 22.4725 22.315 22.7682C21.7938 23.2995 21.1236 23.5937 20.1565 23.7157C19.9883 23.7369 19.4984 23.7726 19.0676 23.7951C17.982 23.8516 17.2676 23.9684 16.6256 24.1942C16.5333 24.2267 16.4509 24.2464 16.4425 24.2381C16.4165 24.2122 16.8536 23.9512 17.2147 23.777C17.7237 23.5314 18.2305 23.3974 19.3659 23.208C19.9268 23.1144 20.506 23.0009 20.6531 22.9557C22.0421 22.5292 22.7561 21.4285 22.5276 20.066Z" fill="white"/>
<path d="M23.8371 22.3929C23.458 21.5766 23.3709 20.7884 23.5786 20.0534C23.6009 19.9748 23.6366 19.9105 23.6581 19.9105C23.6796 19.9105 23.7691 19.959 23.8569 20.0182C24.0316 20.136 24.382 20.3344 25.3156 20.8442C26.4805 21.4803 27.1447 21.9729 27.5964 22.5356C27.9919 23.0285 28.2367 23.5898 28.3546 24.2743C28.4212 24.6621 28.3822 25.595 28.2828 25.9854C27.9696 27.2165 27.2417 28.1834 26.2034 28.7477C26.0513 28.8303 25.9147 28.8982 25.8999 28.8985C25.8852 28.8988 25.9406 28.7577 26.0231 28.5848C26.3724 27.8536 26.4121 27.1423 26.1481 26.3505C25.9864 25.8657 25.6567 25.2742 24.9911 24.2745C24.2173 23.1121 24.0275 22.8028 23.8371 22.3929Z" fill="white"/>
<path d="M13.1161 26.7974C14.175 25.9018 15.4926 25.2657 16.6929 25.0704C17.2101 24.9862 18.0718 25.0196 18.5508 25.1424C19.3186 25.3392 20.0053 25.78 20.3625 26.3051C20.7116 26.8184 20.8614 27.2656 21.0173 28.2608C21.0788 28.6533 21.1457 29.0475 21.1659 29.1368C21.283 29.6525 21.5109 30.0647 21.7933 30.2718C22.2418 30.6005 23.014 30.621 23.7737 30.3242C23.9027 30.2738 24.0146 30.239 24.0225 30.2469C24.05 30.2742 23.6675 30.5308 23.3976 30.6658C23.0345 30.8474 22.7457 30.9177 22.362 30.9177C21.6662 30.9177 21.0886 30.5631 20.6065 29.8403C20.5117 29.698 20.2985 29.2719 20.1328 28.8935C19.6239 27.7308 19.3725 27.3766 18.7816 26.989C18.2674 26.6518 17.6042 26.5914 17.1052 26.8364C16.4499 27.1582 16.267 27.997 16.7364 28.5286C16.923 28.7399 17.2709 28.9221 17.5554 28.9575C18.0875 29.0239 18.5449 28.6184 18.5449 28.0802C18.5449 27.7308 18.4108 27.5314 18.0732 27.3788C17.6121 27.1704 17.1166 27.414 17.1189 27.8478C17.12 28.0328 17.2004 28.1489 17.3855 28.2328C17.5043 28.2867 17.5071 28.2909 17.4102 28.2708C16.9871 28.1829 16.888 27.6721 17.2282 27.333C17.6365 26.9259 18.481 27.1056 18.771 27.6613C18.8928 27.8946 18.907 28.3595 18.8008 28.6402C18.563 29.2684 17.8699 29.5988 17.1668 29.419C16.6881 29.2966 16.4932 29.1641 15.916 28.5686C14.9131 27.5339 14.5237 27.3334 13.0779 27.1073L12.8008 27.064L13.1161 26.7974Z" fill="white"/>
<path fill-rule="evenodd" clip-rule="evenodd" d="M5.55576 3.61891C8.90507 7.69032 14.0687 14.0293 14.325 14.3842C14.5367 14.6772 14.457 14.9406 14.0945 15.1471C13.8928 15.2619 13.4782 15.3782 13.2706 15.3782C13.0359 15.3782 12.7714 15.265 12.5788 15.082C12.4427 14.9527 11.8932 14.131 10.6249 12.1599C9.65439 10.6517 8.84221 9.4005 8.82007 9.37957C8.76885 9.3311 8.76972 9.33275 10.5259 12.48C11.6287 14.4562 12.0009 15.1549 12.0009 15.2483C12.0009 15.4384 11.9492 15.5382 11.7151 15.7998C11.3249 16.2358 11.1505 16.7257 11.0245 17.7396C10.8833 18.8762 10.4864 19.6791 9.38632 21.0532C8.74239 21.8575 8.637 22.005 8.47452 22.3292C8.26983 22.7374 8.21356 22.9661 8.19076 23.4816C8.16666 24.0267 8.21361 24.3788 8.3799 24.8999C8.52544 25.3562 8.67736 25.6574 9.0658 26.26C9.401 26.78 9.59405 27.1665 9.59405 27.3176C9.59405 27.4379 9.61696 27.438 10.1364 27.3206C11.3795 27.0394 12.3889 26.5449 12.9566 25.939C13.3079 25.5639 13.3903 25.3568 13.393 24.8428C13.3948 24.5066 13.383 24.4362 13.2923 24.2428C13.1446 23.928 12.8757 23.6663 12.283 23.2606C11.5065 22.7289 11.1749 22.3009 11.0832 21.7122C11.0081 21.2292 11.0953 20.8885 11.5248 19.9867C11.9695 19.0534 12.0797 18.6556 12.1542 17.7148C12.2023 17.1069 12.269 16.8672 12.4434 16.6748C12.6252 16.4742 12.7889 16.4062 13.239 16.3446C13.9727 16.2442 14.4399 16.0541 14.824 15.6997C15.1571 15.3922 15.2965 15.0959 15.3179 14.6499L15.3341 14.3119L15.148 14.0945C14.4738 13.3071 5.10425 3 5.06276 3C5.0539 3 5.27575 3.27853 5.55576 3.61891ZM9.9725 24.0983C10.1249 23.828 10.044 23.4804 9.78896 23.3106C9.54803 23.1501 9.17375 23.2257 9.17375 23.4348C9.17375 23.4986 9.20902 23.545 9.2884 23.586C9.42205 23.6549 9.43178 23.7323 9.3266 23.8906C9.22009 24.051 9.22868 24.192 9.35085 24.2878C9.54777 24.4422 9.82649 24.3573 9.9725 24.0983Z" fill="white"/>
<path fill-rule="evenodd" clip-rule="evenodd" d="M15.7951 16.522C15.4507 16.6279 15.1159 16.9936 15.0122 17.377C14.9489 17.6109 14.9848 18.0212 15.0796 18.1479C15.2326 18.3525 15.3805 18.4064 15.7812 18.4036C16.5656 18.3981 17.2475 18.0612 17.3268 17.6399C17.3918 17.2946 17.0923 16.8161 16.6798 16.606C16.4669 16.4976 16.0142 16.4546 15.7951 16.522ZM16.7121 17.2401C16.8331 17.068 16.7802 16.8819 16.5744 16.7561C16.1827 16.5165 15.5902 16.7148 15.5902 17.0855C15.5902 17.2701 15.8991 17.4714 16.1824 17.4714C16.3708 17.4714 16.6288 17.3588 16.7121 17.2401Z" fill="white"/>
</svg>
