<svg width="96" height="26" viewBox="0 0 96 26" fill="none" xmlns="http://www.w3.org/2000/svg">
<path d="M88.9737 10.2026H86.1016V25.1744H88.9763L88.9737 10.2026Z" fill="white"/>
<path d="M95.1812 7.37524H88.9727V10.1799H95.1812V7.37524Z" fill="white"/>
<path d="M30.4664 24.2239C29.1276 23.4658 28.0891 22.3916 27.3482 21.0025C26.6087 19.6134 26.2383 18.0206 26.2383 16.2214C26.2383 14.4222 26.5955 12.8016 27.3125 11.4231C28.0282 10.0459 29.0323 8.97695 30.3235 8.21891C31.6147 7.46086 33.0938 7.08118 34.762 7.08118C36.4302 7.08118 37.8617 7.41985 39.1304 8.0972C40.3991 8.77454 41.3966 9.75484 42.1242 11.0394C42.8518 12.324 43.2394 13.8295 43.287 15.5573C43.287 15.7438 43.2804 15.9422 43.2698 16.1526C43.2579 16.3629 43.2407 16.5733 43.2169 16.7836H29.2678V17.0284C29.2916 18.1727 29.543 19.1821 30.0259 20.0579C30.5074 20.9337 31.1702 21.6111 32.0156 22.0886C32.8609 22.5675 33.8346 22.807 34.9393 22.807C36.2305 22.807 37.3285 22.4868 38.2334 21.8439C39.137 21.2023 39.7416 20.3093 40.0472 19.1649H42.9709C42.7354 20.3556 42.2604 21.4232 41.5447 22.3691C40.8277 23.315 39.9241 24.0506 38.8327 24.5758C37.7413 25.101 36.5136 25.3642 35.1523 25.3642C33.3676 25.3642 31.8052 24.9846 30.4677 24.2265L30.4664 24.2239ZM32.2974 10.198C31.5221 10.5949 30.8765 11.1611 30.3592 11.8967C29.842 12.6322 29.5377 13.467 29.4438 14.401H40.2932C40.153 12.8836 39.5828 11.7049 38.5853 10.8635C37.5865 10.0234 36.3244 9.6027 34.799 9.6027C33.9061 9.6027 33.0726 9.80115 32.2987 10.198H32.2974Z" fill="white"/>
<path d="M60.0432 9.0431C58.715 7.73471 56.9608 7.08118 54.7753 7.08118C53.2023 7.08118 51.9031 7.38413 50.8845 7.99136C50.0735 8.47556 49.4015 9.05236 48.863 9.72706V7.29285H44.0898V10.0313H45.9711V25.1526H48.8577V16.2227C48.8577 14.8905 49.0747 13.7382 49.5113 12.7566C49.9452 11.775 50.567 11.0209 51.3779 10.497C52.1863 9.97048 53.156 9.70854 54.2818 9.70854C55.8548 9.70854 57.0587 10.1927 57.8934 11.1625C58.7256 12.1322 59.1423 13.5371 59.1423 15.3813V25.1526H62.0316V15.2054C62.0316 12.4047 61.3688 10.3515 60.0432 9.0431Z" fill="white"/>
<path d="M6.54682 0.635742H3.66016V3.5224H6.54682V0.635742Z" fill="white"/>
<path d="M17.3473 11.3198C16.6064 9.93993 15.5838 8.89084 14.282 8.16587C12.9776 7.44354 11.4932 7.08105 9.82633 7.08105C8.25335 7.08105 6.92512 7.42634 5.8456 8.11559C4.96849 8.67123 4.24351 9.36181 3.6601 10.1701V3.52234H0.773438V25.1524H3.65348V22.4232C4.14694 23.2077 4.83355 23.8626 5.71992 24.3825C6.8378 25.036 8.20573 25.3628 9.82501 25.3628C11.4443 25.3628 12.9458 24.9765 14.2635 24.2065C15.5772 23.4366 16.6064 22.3637 17.3459 20.9839C18.0855 19.608 18.4546 18.0205 18.4546 16.2213C18.4546 14.3308 18.0855 12.6956 17.3459 11.3198H17.3473ZM14.7583 19.6371C14.2648 20.6306 13.5663 21.4059 12.6627 21.9642C11.7592 22.5264 10.718 22.8055 9.54455 22.8055C8.3711 22.8055 7.36566 22.5264 6.46209 21.9642C5.55852 21.4059 4.86 20.6174 4.36655 19.6014C3.87309 18.5854 3.62702 17.4344 3.62702 16.1498C3.62702 14.8652 3.87441 13.7632 4.36655 12.7724C4.86 11.7788 5.55852 11.0102 6.46209 10.4598C7.36566 9.91347 8.39491 9.63698 9.54455 9.63698C10.6942 9.63698 11.7592 9.91612 12.6627 10.4784C13.5663 11.0367 14.2648 11.8159 14.7583 12.8054C15.2517 13.799 15.4991 14.9367 15.4991 16.2213C15.4991 17.5058 15.2517 18.6436 14.7583 19.6371Z" fill="white"/>
<path d="M23.8567 3.52234H20.9688V22.2671H23.8567V3.52234Z" fill="white"/>
<path d="M26.7434 0.635742H23.8555V3.52108H26.7434V0.635742Z" fill="white"/>
<path d="M20.9661 22.2671H18.0781V25.1524H20.9661V22.2671Z" fill="white"/>
<path d="M84.2995 0.635742H81.4102V3.5224H84.2995V0.635742Z" fill="white"/>
<path d="M78.5184 3.52234V10.0114C78.0276 9.22951 77.341 8.57862 76.4586 8.06135C75.3433 7.40782 73.9767 7.07973 72.3561 7.07973C70.7355 7.07973 69.2313 7.46603 67.9176 8.23598C66.6013 9.00594 65.5747 10.0788 64.8352 11.4587C64.0943 12.8345 63.7266 14.4221 63.7266 16.2213C63.7266 18.1117 64.0957 19.7469 64.8352 21.1228C65.576 22.5026 66.5947 23.5517 67.9004 24.2767C69.2022 24.999 70.6892 25.3615 72.3561 25.3615C73.9291 25.3615 75.2547 25.0162 76.3369 24.3269C77.2113 23.7713 77.9363 23.0847 78.5184 22.2724V25.1498H81.4077V3.52234H78.5184ZM77.8133 19.6702C77.3224 20.6637 76.6213 21.4363 75.7177 21.9827C74.8141 22.533 73.7889 22.8055 72.6379 22.8055C71.4869 22.8055 70.4233 22.5264 69.5197 21.9642C68.6162 21.4059 67.9176 20.6293 67.4242 19.6371C66.9307 18.6436 66.6833 17.5058 66.6833 16.2213C66.6833 14.9367 66.9294 13.799 67.4242 12.8054C67.9176 11.8159 68.6162 11.0367 69.5197 10.4784C70.4233 9.91612 71.4605 9.63698 72.6379 9.63698C73.8153 9.63698 74.8141 9.91612 75.7177 10.4784C76.6213 11.0367 77.3224 11.8251 77.8133 12.8411C78.3067 13.8585 78.5541 15.0081 78.5541 16.2927C78.5541 17.5773 78.308 18.6793 77.8133 19.6702Z" fill="white"/>
</svg>
